<svg width="24" height="11" viewBox="0 0 24 11" fill="none" xmlns="http://www.w3.org/2000/svg">
<path d="M23.2969 7.48437H20.8223L15.4084 0.717023C15.1659 0.413883 14.7234 0.364617 14.4202 0.607242C14.1169 0.84982 14.0677 1.29227 14.3104 1.59551L19.0215 7.48437H4.97855L9.68967 1.59551C9.93225 1.29227 9.88308 0.849773 9.57989 0.607242C9.27661 0.364617 8.83416 0.413836 8.59163 0.717023L3.1777 7.48437H0.703125C0.314812 7.48437 0 7.79918 0 8.18749V9.59374C0 9.98206 0.314812 10.2969 0.703125 10.2969H23.2969C23.6852 10.2969 24 9.98206 24 9.59374V8.18749C24 7.79918 23.6852 7.48437 23.2969 7.48437Z" fill="#616575"/>
</svg>
