<svg width="21" height="13" viewBox="0 0 21 13" fill="none" xmlns="http://www.w3.org/2000/svg">
<path d="M20.9435 7.45474C20.9111 6.98709 20.8456 6.47696 20.7491 5.93827C20.6517 5.39555 20.5262 4.88249 20.3761 4.41356C20.221 3.92888 20.0101 3.45024 19.7493 2.99157C19.4787 2.51549 19.1608 2.10095 18.8041 1.75982C18.4312 1.40295 17.9745 1.11603 17.4464 0.906737C16.9202 0.698547 16.337 0.593079 15.7131 0.593079C15.4681 0.593079 15.2312 0.693603 14.7736 0.991514C14.492 1.17517 14.1626 1.38757 13.7949 1.62249C13.4805 1.82281 13.0546 2.01049 12.5286 2.18041C12.0153 2.34649 11.4942 2.43072 10.9799 2.43072C10.4655 2.43072 9.94458 2.34649 9.43079 2.18041C8.90527 2.01067 8.47937 1.82299 8.16534 1.62268C7.80115 1.38995 7.47156 1.17755 7.18573 0.991331C6.7287 0.69342 6.49158 0.592896 6.24658 0.592896C5.62256 0.592896 5.03955 0.698547 4.51349 0.90692C3.98578 1.11584 3.52893 1.40277 3.15558 1.76C2.79907 2.10131 2.48102 2.51568 2.21075 2.99157C1.9502 3.45024 1.73926 3.9287 1.58398 4.41374C1.43402 4.88267 1.30859 5.39555 1.21118 5.93827C1.11469 6.47623 1.04913 6.98654 1.01672 7.45529C0.984863 7.91452 0.96875 8.39114 0.96875 8.87252C0.96875 10.1253 1.367 11.1395 2.15234 11.8875C2.92798 12.6256 3.95428 13.0001 5.20233 13.0001H16.7585C18.0065 13.0001 19.0325 12.6258 19.8083 11.8875C20.5938 11.1401 20.9921 10.1257 20.9921 8.87234C20.9919 8.38876 20.9756 7.91177 20.9435 7.45474Z" fill="#616575"/>
</svg>
