<svg width="22" height="11" viewBox="0 0 22 11" fill="none" xmlns="http://www.w3.org/2000/svg">
<path d="M3.24587 10.0369C3.33212 10.3388 3.60802 10.5469 3.92195 10.5469H18.0782C18.3921 10.5469 18.668 10.3388 18.7543 10.0369L21.421 0.703125H0.579102L3.24587 10.0369ZM14.2206 6.9157L14.9237 2.69695C14.9875 2.31389 15.3498 2.05495 15.7329 2.11898C16.1159 2.18283 16.3747 2.54508 16.3108 2.92814L15.6077 7.14689C15.5504 7.49081 15.2525 7.73456 14.915 7.73456C14.8766 7.73456 14.8377 7.73142 14.7985 7.72486C14.4155 7.66102 14.1567 7.29872 14.2206 6.9157ZM10.2969 2.8125C10.2969 2.42419 10.6118 2.10937 11.0001 2.10937C11.3884 2.10937 11.7032 2.42419 11.7032 2.8125V7.03125C11.7032 7.41956 11.3884 7.73437 11.0001 7.73437C10.6118 7.73437 10.2969 7.41956 10.2969 7.03125V2.8125ZM6.31416 2.11898C6.69727 2.05519 7.05948 2.31389 7.12332 2.69695L7.82645 6.9157C7.89029 7.29872 7.63154 7.66102 7.24848 7.72486C7.20938 7.73137 7.17043 7.73456 7.13204 7.73456C6.79449 7.73456 6.49665 7.49086 6.43932 7.14689L5.7362 2.92814C5.67235 2.54508 5.9311 2.18278 6.31416 2.11898Z" fill="#616575"/>
</svg>
